<mxfile host="app.diagrams.net" agent="Mozilla/5.0 (Windows NT 10.0; Win64; x64) AppleWebKit/537.36 (KHTML, like Gecko) Chrome/133.0.0.0 Safari/537.36" version="26.0.11">
  <diagram name="Page-1" id="Page-1">
    <mxGraphModel dx="3500" dy="2237" grid="1" gridSize="10" guides="1" tooltips="1" connect="1" arrows="1" fold="1" page="1" pageScale="1" pageWidth="1169" pageHeight="827" math="0" shadow="0">
      <root>
        <mxCell id="0" />
        <mxCell id="1" parent="0" />
        <UserObject label="&lt;div style=&quot;font-size: 1px&quot;&gt;&lt;/div&gt;" tags="Background" id="2">
          <mxCell style="verticalAlign=middle;align=center;overflow=width;vsdxID=2;shape=stencil(nZBLDoAgDERP0z3SIyjew0SURgSD+Lu9kMZoXLhwN9O+tukAlrNpJg1SzDH4QW/URgNYgZTkjA4UkwJUgGXng+6DX1zLfmoymdXo17xh5zmRJ6Q42BWCfc2oJfdAr+Yv+AP9Cb7OJ3H/2JG1HNGz/84klThPVCc=);points=[[0.5,1,0],[1,0.5,0],[0.5,0,0],[0,0.5,0],[0.5,0.5,0]];labelBackgroundColor=none;rounded=0;html=1;whiteSpace=wrap;" parent="1" vertex="1">
            <mxGeometry x="538" y="60" width="1356" height="1664" as="geometry" />
          </mxCell>
        </UserObject>
        <UserObject label="" tags="Background" id="3">
          <mxCell style="vsdxID=3;fillColor=none;gradientColor=none;strokeColor=none;points=[[1,0.5,0],[1,0.5,0],[0.5,0,0],[0.5,0,0]];labelBackgroundColor=none;rounded=0;html=1;whiteSpace=wrap;" parent="1" vertex="1">
            <mxGeometry x="2072" y="801" width="99" height="113" as="geometry" />
          </mxCell>
        </UserObject>
        <mxCell id="4" style="vsdxID=4;fillColor=#4672c4;gradientColor=none;shape=stencil(tZTbjoIwEIafhksmPReuXX2PRlGbZcEUXPHtF9IB2xLNbszedaZ//68zPWR8053NpcoY6XrXflY3e+jPGf/IGLPNuXK2H0cZ32Z8c2xddXLttTn4+GIm5TT6ar8nh8Gvo4RMaxi5x/HOi2vbvBBrBUKH8v3VeXOaLsCEZlAKnxqYT5UFUI4qTKkSBEUVR5VECcZKA1Gv0EVgiylFQasYrkvgRQyXBTARwzUBxWO+lFAUr/hKPJwxJQVQFvOlBpnggw7NLJKwF8kTtuCr2uW68VwBS+HBDhHGgg79tnYW9Iuuu4owSmebx8Ez4DIp/o/nHpjS9W1CDomxet3zpOWrmx4/jDfeUCKOX+dSPYYcJA/Vxu3HWTdbs/kyufvS4uXGYyHPHMmQm8F2uWt709u2iQqrjTtV+UjLj7U5obef6m5VdQnS5L39Pa34X/Y3Dh4f49HWtf9Xw/n0Ix1T/hPm2x8=);strokeColor=#7030a0;spacingTop=-3;spacingBottom=-3;spacingLeft=-3;spacingRight=-3;points=[[1,0.5,0],[0,0.5,0],[0.5,0,0],[0.5,1,0]];labelBackgroundColor=none;rounded=0;html=1;whiteSpace=wrap;" parent="3" vertex="1">
          <mxGeometry width="99" height="113" as="geometry" />
        </mxCell>
        <UserObject label="&lt;div style=&quot;font-size: 1px&quot;&gt;&lt;font style=&quot;font-size:28.22px;font-family:Calibri;color:#000000;direction:ltr;letter-spacing:0px;line-height:120%;opacity:1&quot;&gt;&lt;b&gt;APP User&lt;br/&gt;&lt;/b&gt;&lt;/font&gt;&lt;/div&gt;" tags="Background" id="5">
          <mxCell style="verticalAlign=middle;align=center;overflow=width;vsdxID=6;fillColor=none;gradientColor=none;shape=stencil(nZBLDoAgDERP0z3SIyjew0SURgSD+Lu9kMZoXLhwN9O+tukAlrNpJg1SzDH4QW/URgNYgZTkjA4UkwJUgGXng+6DX1zLfmoymdXo17xh5zmRJ6Q42BWCfc2oJfdAr+Yv+AP9Cb7OJ3H/2JG1HNGz/84klThPVCc=);strokeColor=none;points=[];labelBackgroundColor=none;rounded=0;html=1;whiteSpace=wrap;" parent="1" vertex="1">
            <mxGeometry x="2008" y="895" width="227" height="80" as="geometry" />
          </mxCell>
        </UserObject>
        <UserObject label="&lt;div style=&quot;font-size: 1px&quot;&gt;&lt;font style=&quot;font-size:28.22px;font-family:Calibri;color:#000000;direction:ltr;letter-spacing:0px;line-height:120%;opacity:1&quot;&gt;&lt;b&gt;Register&lt;br/&gt;&lt;/b&gt;&lt;/font&gt;&lt;/div&gt;" tags="Background" id="6">
          <mxCell style="verticalAlign=middle;align=center;overflow=width;vsdxID=7;fillColor=#bac8d3;shape=stencil(nZBLDoAgDERP0z3SIyjew0SURgSD+Lu9kMZoXLhwN9O+tukAlrNpJg1SzDH4QW/URgNYgZTkjA4UkwJUgGXng+6DX1zLfmoymdXo17xh5zmRJ6Q42BWCfc2oJfdAr+Yv+AP9Cb7OJ3H/2JG1HNGz/84klThPVCc=);strokeColor=#23445d;points=[];labelBackgroundColor=none;rounded=0;html=1;whiteSpace=wrap;" parent="1" vertex="1">
            <mxGeometry x="1015" y="96" width="339" height="84" as="geometry" />
          </mxCell>
        </UserObject>
        <UserObject label="&lt;div style=&quot;font-size: 1px&quot;&gt;&lt;font style=&quot;font-size:28.22px;font-family:Calibri;color:#000000;direction:ltr;letter-spacing:0px;line-height:120%;opacity:1&quot;&gt;&lt;b&gt;Login&lt;br/&gt;&lt;/b&gt;&lt;/font&gt;&lt;/div&gt;" tags="Background" id="7">
          <mxCell style="verticalAlign=middle;align=center;overflow=width;vsdxID=8;fillColor=#bac8d3;shape=stencil(nZBLDoAgDERP0z3SIyjew0SURgSD+Lu9kMZoXLhwN9O+tukAlrNpJg1SzDH4QW/URgNYgZTkjA4UkwJUgGXng+6DX1zLfmoymdXo17xh5zmRJ6Q42BWCfc2oJfdAr+Yv+AP9Cb7OJ3H/2JG1HNGz/84klThPVCc=);strokeColor=#23445d;points=[];labelBackgroundColor=none;rounded=0;html=1;whiteSpace=wrap;" parent="1" vertex="1">
            <mxGeometry x="1015" y="191" width="339" height="84" as="geometry" />
          </mxCell>
        </UserObject>
        <UserObject label="&lt;div style=&quot;font-size: 1px&quot;&gt;&lt;font style=&quot;font-size:28.22px;font-family:Calibri;color:#000000;direction:ltr;letter-spacing:0px;line-height:120%;opacity:1&quot;&gt;&lt;b&gt;Forget Password&lt;br/&gt;&lt;/b&gt;&lt;/font&gt;&lt;/div&gt;" tags="Background" id="8">
          <mxCell style="verticalAlign=middle;align=center;overflow=width;vsdxID=9;fillColor=#bac8d3;shape=stencil(nZBLDoAgDERP0z3SIyjew0SURgSD+Lu9kMZoXLhwN9O+tukAlrNpJg1SzDH4QW/URgNYgZTkjA4UkwJUgGXng+6DX1zLfmoymdXo17xh5zmRJ6Q42BWCfc2oJfdAr+Yv+AP9Cb7OJ3H/2JG1HNGz/84klThPVCc=);strokeColor=#23445d;points=[];labelBackgroundColor=none;rounded=0;html=1;whiteSpace=wrap;" parent="1" vertex="1">
            <mxGeometry x="1015" y="286" width="339" height="84" as="geometry" />
          </mxCell>
        </UserObject>
        <UserObject label="&lt;div style=&quot;font-size: 1px&quot;&gt;&lt;font style=&quot;font-size:28.22px;font-family:Calibri;color:#000000;direction:ltr;letter-spacing:0px;line-height:120%;opacity:1&quot;&gt;&lt;b&gt;Money Related records&lt;br/&gt;&lt;/b&gt;&lt;/font&gt;&lt;/div&gt;" tags="Background" id="9">
          <mxCell style="verticalAlign=middle;align=center;overflow=width;vsdxID=10;fillColor=#bac8d3;shape=stencil(nZBLDoAgDERP0z3SIyjew0SURgSD+Lu9kMZoXLhwN9O+tukAlrNpJg1SzDH4QW/URgNYgZTkjA4UkwJUgGXng+6DX1zLfmoymdXo17xh5zmRJ6Q42BWCfc2oJfdAr+Yv+AP9Cb7OJ3H/2JG1HNGz/84klThPVCc=);strokeColor=#23445d;points=[];labelBackgroundColor=none;rounded=0;html=1;whiteSpace=wrap;" parent="1" vertex="1">
            <mxGeometry x="1015" y="381" width="339" height="84" as="geometry" />
          </mxCell>
        </UserObject>
        <UserObject label="&lt;div style=&quot;font-size: 1px&quot;&gt;&lt;font style=&quot;font-size:28.22px;font-family:Calibri;color:#000000;direction:ltr;letter-spacing:0px;line-height:120%;opacity:1&quot;&gt;&lt;b&gt;Item Related Records&lt;br/&gt;&lt;/b&gt;&lt;/font&gt;&lt;/div&gt;" tags="Background" id="10">
          <mxCell style="verticalAlign=middle;align=center;overflow=width;vsdxID=11;fillColor=#bac8d3;shape=stencil(nZBLDoAgDERP0z3SIyjew0SURgSD+Lu9kMZoXLhwN9O+tukAlrNpJg1SzDH4QW/URgNYgZTkjA4UkwJUgGXng+6DX1zLfmoymdXo17xh5zmRJ6Q42BWCfc2oJfdAr+Yv+AP9Cb7OJ3H/2JG1HNGz/84klThPVCc=);strokeColor=#23445d;points=[];labelBackgroundColor=none;rounded=0;html=1;whiteSpace=wrap;" parent="1" vertex="1">
            <mxGeometry x="1015" y="476" width="339" height="84" as="geometry" />
          </mxCell>
        </UserObject>
        <UserObject label="&lt;div style=&quot;font-size: 1px&quot;&gt;&lt;font style=&quot;font-size:28.22px;font-family:Calibri;color:#000000;direction:ltr;letter-spacing:0px;line-height:120%;opacity:1&quot;&gt;&lt;b&gt;Reminder after expiry date&lt;br/&gt;&lt;/b&gt;&lt;/font&gt;&lt;/div&gt;" tags="Background" id="11">
          <mxCell style="verticalAlign=middle;align=center;overflow=width;vsdxID=12;fillColor=#bac8d3;shape=stencil(nZBLDoAgDERP0z3SIyjew0SURgSD+Lu9kMZoXLhwN9O+tukAlrNpJg1SzDH4QW/URgNYgZTkjA4UkwJUgGXng+6DX1zLfmoymdXo17xh5zmRJ6Q42BWCfc2oJfdAr+Yv+AP9Cb7OJ3H/2JG1HNGz/84klThPVCc=);strokeColor=#23445d;points=[];labelBackgroundColor=none;rounded=0;html=1;whiteSpace=wrap;" parent="1" vertex="1">
            <mxGeometry x="1015" y="571" width="339" height="84" as="geometry" />
          </mxCell>
        </UserObject>
        <UserObject label="&lt;div style=&quot;font-size: 1px&quot;&gt;&lt;font style=&quot;font-size:28.22px;font-family:Calibri;color:#000000;direction:ltr;letter-spacing:0px;line-height:120%;opacity:1&quot;&gt;&lt;b&gt;Delete Any record&lt;br/&gt;&lt;/b&gt;&lt;/font&gt;&lt;/div&gt;" tags="Background" id="12">
          <mxCell style="verticalAlign=middle;align=center;overflow=width;vsdxID=13;fillColor=#bac8d3;shape=stencil(nZBLDoAgDERP0z3SIyjew0SURgSD+Lu9kMZoXLhwN9O+tukAlrNpJg1SzDH4QW/URgNYgZTkjA4UkwJUgGXng+6DX1zLfmoymdXo17xh5zmRJ6Q42BWCfc2oJfdAr+Yv+AP9Cb7OJ3H/2JG1HNGz/84klThPVCc=);strokeColor=#23445d;points=[];labelBackgroundColor=none;rounded=0;html=1;whiteSpace=wrap;" parent="1" vertex="1">
            <mxGeometry x="1015" y="666" width="339" height="84" as="geometry" />
          </mxCell>
        </UserObject>
        <UserObject label="&lt;div style=&quot;font-size: 1px&quot;&gt;&lt;font style=&quot;font-size:28.22px;font-family:Calibri;color:#000000;direction:ltr;letter-spacing:0px;line-height:120%;opacity:1&quot;&gt;&lt;b&gt;SearchÂ &lt;br/&gt;&lt;/b&gt;&lt;/font&gt;&lt;/div&gt;" tags="Background" id="13">
          <mxCell style="verticalAlign=middle;align=center;overflow=width;vsdxID=14;fillColor=#bac8d3;shape=stencil(nZBLDoAgDERP0z3SIyjew0SURgSD+Lu9kMZoXLhwN9O+tukAlrNpJg1SzDH4QW/URgNYgZTkjA4UkwJUgGXng+6DX1zLfmoymdXo17xh5zmRJ6Q42BWCfc2oJfdAr+Yv+AP9Cb7OJ3H/2JG1HNGz/84klThPVCc=);strokeColor=#23445d;points=[];labelBackgroundColor=none;rounded=0;html=1;whiteSpace=wrap;" parent="1" vertex="1">
            <mxGeometry x="1015" y="761" width="339" height="84" as="geometry" />
          </mxCell>
        </UserObject>
        <UserObject label="" tags="Background" id="14">
          <mxCell style="vsdxID=16;fillColor=#bac8d3;shape=stencil(rVFBDsIwDHtNj5VCK14wxj8ilm0VZZ3SAuX3tAoIBhwQ4mbHjhMlyjZxxJmUgZg47OnsujQqu1HGuGkkdqkgZVtlmz4wDRyOUyd8xuqs6BBONSFLH9QOAxdha6FbcSLvisR5oQEvvfegFXyMgqwxu6g5JEwuTIupHnkgXcbo3uNwyxEpnonmt/Ivi/1nLfhirQIeZ+6d9/KlZ/31LaUkL7XtFQ==);strokeColor=#23445d;points=[[0.5,0,0],[0.5,0.5,0],[0,0.5,0],[0.5,1,0],[1,0.5,0]];labelBackgroundColor=none;rounded=0;html=1;whiteSpace=wrap;" parent="1" vertex="1">
            <mxGeometry x="1562" y="724" width="259" height="152" as="geometry" />
          </mxCell>
        </UserObject>
        <UserObject label="" tags="Background" id="15">
          <mxCell style="vsdxID=18;fillColor=#bac8d3;shape=stencil(vVFBDgIhDHwNRxKE+IJ1/Ufjll0iLpuCLv5eSDWKevLgbaYznTatMF2cYEGhVUwUjri6IU3C7ITWbp6QXCpImF6YzgbCkcJ5HpgvUJ0VncKlJmTuU7VDqyuzLdM9O4EORaLcaIpa7yNoo75GqSwhuygpJEguzM1UDzSiLGOk9TDec1iKK+LyUf5lsf+tVcDzzNZ5z1961d/fUkr8UtPfAA==);strokeColor=#23445d;points=[[0.5,0,0],[0.5,0.5,0],[0,0.5,0],[0.5,1,0],[1,0.5,0]];labelBackgroundColor=none;rounded=0;html=1;whiteSpace=wrap;" parent="1" vertex="1">
            <mxGeometry x="562" y="713" width="280" height="180" as="geometry" />
          </mxCell>
        </UserObject>
        <UserObject label="&lt;div style=&quot;font-size: 1px&quot;&gt;&lt;font style=&quot;font-size:28.22px;font-family:Calibri;color:#000000;direction:ltr;letter-spacing:0px;line-height:120%;opacity:1&quot;&gt;&lt;b&gt;By Customer name&lt;br/&gt;&lt;/b&gt;&lt;/font&gt;&lt;/div&gt;" tags="Background" id="16">
          <mxCell style="verticalAlign=middle;align=center;overflow=width;vsdxID=19;fillColor=#bac8d3;shape=stencil(nZBLDoAgDERP0z3SIyjew0SURgSD+Lu9kMZoXLhwN9O+tukAlrNpJg1SzDH4QW/URgNYgZTkjA4UkwJUgGXng+6DX1zLfmoymdXo17xh5zmRJ6Q42BWCfc2oJfdAr+Yv+AP9Cb7OJ3H/2JG1HNGz/84klThPVCc=);strokeColor=#23445d;points=[];labelBackgroundColor=none;rounded=0;html=1;whiteSpace=wrap;" parent="1" vertex="1">
            <mxGeometry x="581" y="769" width="241" height="62" as="geometry" />
          </mxCell>
        </UserObject>
        <UserObject label="&lt;div style=&quot;font-size: 1px&quot;&gt;&lt;font style=&quot;font-size:28.22px;font-family:Calibri;color:#000000;direction:ltr;letter-spacing:0px;line-height:120%;opacity:1&quot;&gt;&lt;b&gt;By Customer number&lt;br/&gt;&lt;/b&gt;&lt;/font&gt;&lt;/div&gt;" tags="Background" id="17">
          <mxCell style="verticalAlign=middle;align=center;overflow=width;vsdxID=20;fillColor=#bac8d3;shape=stencil(nZBLDoAgDERP0z3SIyjew0SURgSD+Lu9kMZoXLhwN9O+tukAlrNpJg1SzDH4QW/URgNYgZTkjA4UkwJUgGXng+6DX1zLfmoymdXo17xh5zmRJ6Q42BWCfc2oJfdAr+Yv+AP9Cb7OJ3H/2JG1HNGz/84klThPVCc=);strokeColor=#23445d;points=[];labelBackgroundColor=none;rounded=0;html=1;whiteSpace=wrap;" parent="1" vertex="1">
            <mxGeometry x="1562" y="769" width="241" height="62" as="geometry" />
          </mxCell>
        </UserObject>
        <UserObject label="&lt;div style=&quot;font-size: 1px&quot;&gt;&lt;font style=&quot;font-size:28.22px;font-family:Calibri;color:#000000;direction:ltr;letter-spacing:0px;line-height:120%;opacity:1&quot;&gt;&lt;b&gt;Filtering Records&lt;br/&gt;&lt;/b&gt;&lt;/font&gt;&lt;/div&gt;" tags="Background" id="18">
          <mxCell style="verticalAlign=middle;align=center;overflow=width;vsdxID=24;fillColor=#bac8d3;shape=stencil(nZBLDoAgDERP0z3SIyjew0SURgSD+Lu9kMZoXLhwN9O+tukAlrNpJg1SzDH4QW/URgNYgZTkjA4UkwJUgGXng+6DX1zLfmoymdXo17xh5zmRJ6Q42BWCfc2oJfdAr+Yv+AP9Cb7OJ3H/2JG1HNGz/84klThPVCc=);strokeColor=#23445d;points=[];labelBackgroundColor=none;rounded=0;html=1;whiteSpace=wrap;" parent="1" vertex="1">
            <mxGeometry x="1015" y="856" width="339" height="84" as="geometry" />
          </mxCell>
        </UserObject>
        <UserObject label="&lt;div style=&quot;font-size: 1px&quot;&gt;&lt;font style=&quot;font-size:28.22px;font-family:Calibri;color:#000000;direction:ltr;letter-spacing:0px;line-height:120%;opacity:1&quot;&gt;&lt;b&gt;&amp;lt;&amp;lt; Extend &amp;gt;&amp;gt;&lt;br/&gt;&lt;/b&gt;&lt;/font&gt;&lt;/div&gt;" tags="Background" id="19">
          <mxCell style="verticalAlign=middle;align=center;overflow=width;vsdxID=25;fillColor=none;gradientColor=none;shape=stencil(nZBLDoAgDERP0z3SIyjew0SURgSD+Lu9kMZoXLhwN9O+tukAlrNpJg1SzDH4QW/URgNYgZTkjA4UkwJUgGXng+6DX1zLfmoymdXo17xh5zmRJ6Q42BWCfc2oJfdAr+Yv+AP9Cb7OJ3H/2JG1HNGz/84klThPVCc=);strokeColor=none;points=[];labelBackgroundColor=none;rounded=0;html=1;whiteSpace=wrap;" parent="1" vertex="1">
            <mxGeometry x="825" y="807" width="190" height="38" as="geometry" />
          </mxCell>
        </UserObject>
        <UserObject label="&lt;div style=&quot;font-size: 1px&quot;&gt;&lt;font style=&quot;font-size:28.22px;font-family:Calibri;color:#000000;direction:ltr;letter-spacing:0px;line-height:120%;opacity:1&quot;&gt;&lt;b&gt;&amp;lt;&amp;lt; Extend &amp;gt;&amp;gt;&lt;br/&gt;&lt;/b&gt;&lt;/font&gt;&lt;/div&gt;" tags="Background" id="20">
          <mxCell style="verticalAlign=middle;align=center;overflow=width;vsdxID=26;fillColor=none;gradientColor=none;shape=stencil(nZBLDoAgDERP0z3SIyjew0SURgSD+Lu9kMZoXLhwN9O+tukAlrNpJg1SzDH4QW/URgNYgZTkjA4UkwJUgGXng+6DX1zLfmoymdXo17xh5zmRJ6Q42BWCfc2oJfdAr+Yv+AP9Cb7OJ3H/2JG1HNGz/84klThPVCc=);strokeColor=none;points=[];labelBackgroundColor=none;rounded=0;html=1;whiteSpace=wrap;" parent="1" vertex="1">
            <mxGeometry x="1363" y="807" width="190" height="38" as="geometry" />
          </mxCell>
        </UserObject>
        <UserObject label="" tags="Background" id="21">
          <mxCell style="vsdxID=29;fillColor=#bac8d3;shape=stencil(rVFbDsIgEDwNnyQU4glqvcfGblsilmZBS28vZGMsxg9j/JvZmX1kR5g2TLCg0CpE8hdcbR8nYY5CaztPSDZmJEwnTDt4wpH8be6ZL1CcBV39vUxI3KdKh1YbswPTEzuBzlmiVGmKau9zUKM+jlJJQrJBko8QrZ+rrQ5oRJnXyMHBWElhRVx25ebnw/5zVvPFWRm83jxY5zilvf4eSy5xpKZ7AA==);strokeColor=#23445d;points=[[0.5,0,0],[0.5,0.5,0],[0,0.5,0],[0.5,1,0],[1,0.5,0]];labelBackgroundColor=none;rounded=0;html=1;whiteSpace=wrap;" parent="1" vertex="1">
            <mxGeometry x="581" y="923" width="261" height="180" as="geometry" />
          </mxCell>
        </UserObject>
        <UserObject label="&lt;div style=&quot;font-size: 1px&quot;&gt;&lt;font style=&quot;font-size:28.22px;font-family:Calibri;color:#000000;direction:ltr;letter-spacing:0px;line-height:120%;opacity:1&quot;&gt;&lt;b&gt;User need to pay&lt;br/&gt;&lt;/b&gt;&lt;/font&gt;&lt;/div&gt;" tags="Background" id="22">
          <mxCell style="verticalAlign=middle;align=center;overflow=width;vsdxID=30;fillColor=#bac8d3;shape=stencil(nZBLDoAgDERP0z3SIyjew0SURgSD+Lu9kMZoXLhwN9O+tukAlrNpJg1SzDH4QW/URgNYgZTkjA4UkwJUgGXng+6DX1zLfmoymdXo17xh5zmRJ6Q42BWCfc2oJfdAr+Yv+AP9Cb7OJ3H/2JG1HNGz/84klThPVCc=);strokeColor=#23445d;points=[];labelBackgroundColor=none;rounded=0;html=1;whiteSpace=wrap;" parent="1" vertex="1">
            <mxGeometry x="581" y="979" width="241" height="62" as="geometry" />
          </mxCell>
        </UserObject>
        <UserObject label="&lt;div style=&quot;font-size: 1px&quot;&gt;&lt;font style=&quot;font-size:28.22px;font-family:Calibri;color:#000000;direction:ltr;letter-spacing:0px;line-height:120%;opacity:1&quot;&gt;&lt;b&gt;&amp;lt;&amp;lt; Extend &amp;gt;&amp;gt;&lt;br/&gt;&lt;/b&gt;&lt;/font&gt;&lt;/div&gt;" tags="Background" id="23">
          <mxCell style="verticalAlign=middle;align=center;overflow=width;vsdxID=32;fillColor=none;gradientColor=none;shape=stencil(nZBLDoAgDERP0z3SIyjew0SURgSD+Lu9kMZoXLhwN9O+tukAlrNpJg1SzDH4QW/URgNYgZTkjA4UkwJUgGXng+6DX1zLfmoymdXo17xh5zmRJ6Q42BWCfc2oJfdAr+Yv+AP9Cb7OJ3H/2JG1HNGz/84klThPVCc=);strokeColor=none;points=[];labelBackgroundColor=none;rounded=0;html=1;whiteSpace=wrap;" parent="1" vertex="1">
            <mxGeometry x="825" y="975" width="190" height="38" as="geometry" />
          </mxCell>
        </UserObject>
        <UserObject label="" tags="Background" id="24">
          <mxCell style="vsdxID=34;fillColor=#bac8d3;shape=stencil(vVFBDgIhDHwNRxKE+IJ1/Ufjll0iLpuCLv5eSDWKevLgbaYznTatMF2cYEGhVUwUjri6IU3C7ITWbp6QXCpImF6YzgbCkcJ5HpgvUJ0VncKlJmTuU7VDqyuzLdM9O4EORaLcaIpa7yNoo75GqSwhuygpJEguzM1UDzSiLGOk9TDec1iKK+LyUf5lsf+tVcDzzNZ5z1961d/fUkr8UtPfAA==);strokeColor=#23445d;points=[[0.5,0,0],[0.5,0.5,0],[0,0.5,0],[0.5,1,0],[1,0.5,0]];labelBackgroundColor=none;rounded=0;html=1;whiteSpace=wrap;" parent="1" vertex="1">
            <mxGeometry x="1551" y="920" width="280" height="180" as="geometry" />
          </mxCell>
        </UserObject>
        <UserObject label="&lt;div style=&quot;font-size: 1px&quot;&gt;&lt;font style=&quot;font-size:28.22px;font-family:Calibri;color:#000000;direction:ltr;letter-spacing:0px;line-height:120%;opacity:1&quot;&gt;&lt;b&gt;User Will Get&lt;br/&gt;&lt;/b&gt;&lt;/font&gt;&lt;/div&gt;" tags="Background" id="25">
          <mxCell style="verticalAlign=middle;align=center;overflow=width;vsdxID=35;fillColor=none;gradientColor=none;shape=stencil(nZBLDoAgDERP0z3SIyjew0SURgSD+Lu9kMZoXLhwN9O+tukAlrNpJg1SzDH4QW/URgNYgZTkjA4UkwJUgGXng+6DX1zLfmoymdXo17xh5zmRJ6Q42BWCfc2oJfdAr+Yv+AP9Cb7OJ3H/2JG1HNGz/84klThPVCc=);strokeColor=none;points=[];labelBackgroundColor=none;rounded=0;html=1;whiteSpace=wrap;" parent="1" vertex="1">
            <mxGeometry x="1571" y="975" width="241" height="62" as="geometry" />
          </mxCell>
        </UserObject>
        <UserObject label="&lt;div style=&quot;font-size: 1px&quot;&gt;&lt;font style=&quot;font-size:28.22px;font-family:Calibri;color:#000000;direction:ltr;letter-spacing:0px;line-height:120%;opacity:1&quot;&gt;&lt;b&gt;&amp;lt;&amp;lt; Extend &amp;gt;&amp;gt;&lt;br/&gt;&lt;/b&gt;&lt;/font&gt;&lt;/div&gt;" tags="Background" id="26">
          <mxCell style="verticalAlign=middle;align=center;overflow=width;vsdxID=37;fillColor=none;gradientColor=none;shape=stencil(nZBLDoAgDERP0z3SIyjew0SURgSD+Lu9kMZoXLhwN9O+tukAlrNpJg1SzDH4QW/URgNYgZTkjA4UkwJUgGXng+6DX1zLfmoymdXo17xh5zmRJ6Q42BWCfc2oJfdAr+Yv+AP9Cb7OJ3H/2JG1HNGz/84klThPVCc=);strokeColor=none;points=[];labelBackgroundColor=none;rounded=0;html=1;whiteSpace=wrap;" parent="1" vertex="1">
            <mxGeometry x="1327" y="964" width="190" height="38" as="geometry" />
          </mxCell>
        </UserObject>
        <UserObject label="&lt;div style=&quot;font-size: 1px&quot;&gt;&lt;font style=&quot;font-size:28.22px;font-family:Calibri;color:#000000;direction:ltr;letter-spacing:0px;line-height:120%;opacity:1&quot;&gt;&lt;b&gt;Sort records&lt;br/&gt;&lt;/b&gt;&lt;/font&gt;&lt;/div&gt;" tags="Background" id="27">
          <mxCell style="verticalAlign=middle;align=center;overflow=width;vsdxID=38;fillColor=#bac8d3;shape=stencil(nZBLDoAgDERP0z3SIyjew0SURgSD+Lu9kMZoXLhwN9O+tukAlrNpJg1SzDH4QW/URgNYgZTkjA4UkwJUgGXng+6DX1zLfmoymdXo17xh5zmRJ6Q42BWCfc2oJfdAr+Yv+AP9Cb7OJ3H/2JG1HNGz/84klThPVCc=);strokeColor=#23445d;points=[];labelBackgroundColor=none;rounded=0;html=1;whiteSpace=wrap;" parent="1" vertex="1">
            <mxGeometry x="1015" y="1145" width="339" height="84" as="geometry" />
          </mxCell>
        </UserObject>
        <UserObject label="&lt;div style=&quot;font-size: 1px&quot;&gt;&lt;font style=&quot;font-size:28.22px;font-family:Calibri;color:#000000;direction:ltr;letter-spacing:0px;line-height:120%;opacity:1&quot;&gt;&lt;b&gt;&amp;lt;&amp;lt; include &amp;gt;&amp;gt;&lt;br/&gt;&lt;/b&gt;&lt;/font&gt;&lt;/div&gt;" tags="Background" id="28">
          <mxCell style="verticalAlign=middle;align=center;overflow=width;vsdxID=40;fillColor=none;gradientColor=none;shape=stencil(nZBLDoAgDERP0z3SIyjew0SURgSD+Lu9kMZoXLhwN9O+tukAlrNpJg1SzDH4QW/URgNYgZTkjA4UkwJUgGXng+6DX1zLfmoymdXo17xh5zmRJ6Q42BWCfc2oJfdAr+Yv+AP9Cb7OJ3H/2JG1HNGz/84klThPVCc=);strokeColor=none;points=[];labelBackgroundColor=none;rounded=0;html=1;whiteSpace=wrap;" parent="1" vertex="1">
            <mxGeometry x="942" y="1100" width="190" height="38" as="geometry" />
          </mxCell>
        </UserObject>
        <UserObject label="" tags="Background" id="29">
          <mxCell style="vsdxID=41;fillColor=#bac8d3;shape=stencil(rVFbDsIgEDwNnyQU4glqvcfGblsilmZBS28vZGMsxg9j/JvZmX1kR5g2TLCg0CpE8hdcbR8nYY5CaztPSDZmJEwnTDt4wpH8be6ZL1CcBV39vUxI3KdKh1YbswPTEzuBzlmiVGmKau9zUKM+jlJJQrJBko8QrZ+rrQ5oRJnXyMHBWElhRVx25ebnw/5zVvPFWRm83jxY5zilvf4eSy5xpKZ7AA==);strokeColor=#23445d;points=[[0.5,0,0],[0.5,0.5,0],[0,0.5,0],[0.5,1,0],[1,0.5,0]];labelBackgroundColor=none;rounded=0;html=1;whiteSpace=wrap;" parent="1" vertex="1">
            <mxGeometry x="571" y="1114" width="261" height="180" as="geometry" />
          </mxCell>
        </UserObject>
        <UserObject label="&lt;div style=&quot;font-size: 1px&quot;&gt;&lt;font style=&quot;font-size:28.22px;font-family:Calibri;color:#000000;direction:ltr;letter-spacing:0px;line-height:120%;opacity:1&quot;&gt;&lt;b&gt;Most recent&lt;br/&gt;&lt;/b&gt;&lt;/font&gt;&lt;/div&gt;" tags="Background" id="30">
          <mxCell style="verticalAlign=middle;align=center;overflow=width;vsdxID=42;fillColor=#bac8d3;shape=stencil(nZBLDoAgDERP0z3SIyjew0SURgSD+Lu9kMZoXLhwN9O+tukAlrNpJg1SzDH4QW/URgNYgZTkjA4UkwJUgGXng+6DX1zLfmoymdXo17xh5zmRJ6Q42BWCfc2oJfdAr+Yv+AP9Cb7OJ3H/2JG1HNGz/84klThPVCc=);strokeColor=#23445d;points=[];labelBackgroundColor=none;rounded=0;html=1;whiteSpace=wrap;" parent="1" vertex="1">
            <mxGeometry x="581" y="1170" width="241" height="62" as="geometry" />
          </mxCell>
        </UserObject>
        <UserObject label="" tags="Background" id="31">
          <mxCell style="vsdxID=44;fillColor=#bac8d3;shape=stencil(rVFbDsIgEDwNnyQU4glqvcfGblsilmZBS28vZGMsxg9j/JvZmX1kR5g2TLCg0CpE8hdcbR8nYY5CaztPSDZmJEwnTDt4wpH8be6ZL1CcBV39vUxI3KdKh1YbswPTEzuBzlmiVGmKau9zUKM+jlJJQrJBko8QrZ+rrQ5oRJnXyMHBWElhRVx25ebnw/5zVvPFWRm83jxY5zilvf4eSy5xpKZ7AA==);strokeColor=#23445d;points=[[0.5,0,0],[0.5,0.5,0],[0,0.5,0],[0.5,1,0],[1,0.5,0]];labelBackgroundColor=none;rounded=0;html=1;whiteSpace=wrap;" parent="1" vertex="1">
            <mxGeometry x="1560" y="1111" width="261" height="180" as="geometry" />
          </mxCell>
        </UserObject>
        <UserObject label="&lt;div style=&quot;font-size: 1px&quot;&gt;&lt;font style=&quot;font-size:28.22px;font-family:Calibri;color:#000000;direction:ltr;letter-spacing:0px;line-height:120%;opacity:1&quot;&gt;&lt;b&gt;Highest amount&lt;br/&gt;&lt;/b&gt;&lt;/font&gt;&lt;/div&gt;" tags="Background" id="32">
          <mxCell style="verticalAlign=middle;align=center;overflow=width;vsdxID=45;fillColor=#bac8d3;shape=stencil(nZBLDoAgDERP0z3SIyjew0SURgSD+Lu9kMZoXLhwN9O+tukAlrNpJg1SzDH4QW/URgNYgZTkjA4UkwJUgGXng+6DX1zLfmoymdXo17xh5zmRJ6Q42BWCfc2oJfdAr+Yv+AP9Cb7OJ3H/2JG1HNGz/84klThPVCc=);strokeColor=#23445d;points=[];labelBackgroundColor=none;rounded=0;html=1;whiteSpace=wrap;" parent="1" vertex="1">
            <mxGeometry x="1569" y="1170" width="241" height="62" as="geometry" />
          </mxCell>
        </UserObject>
        <UserObject label="&lt;div style=&quot;font-size: 1px&quot;&gt;&lt;font style=&quot;font-size:28.22px;font-family:Calibri;color:#000000;direction:ltr;letter-spacing:0px;line-height:120%;opacity:1&quot;&gt;&lt;b&gt;&amp;lt;&amp;lt; Extend &amp;gt;&amp;gt;&lt;br/&gt;&lt;/b&gt;&lt;/font&gt;&lt;/div&gt;" tags="Background" id="33">
          <mxCell style="verticalAlign=middle;align=center;overflow=width;vsdxID=47;fillColor=none;gradientColor=none;shape=stencil(nZBLDoAgDERP0z3SIyjew0SURgSD+Lu9kMZoXLhwN9O+tukAlrNpJg1SzDH4QW/URgNYgZTkjA4UkwJUgGXng+6DX1zLfmoymdXo17xh5zmRJ6Q42BWCfc2oJfdAr+Yv+AP9Cb7OJ3H/2JG1HNGz/84klThPVCc=);strokeColor=none;points=[];labelBackgroundColor=none;rounded=0;html=1;whiteSpace=wrap;" parent="1" vertex="1">
            <mxGeometry x="833" y="1212" width="190" height="38" as="geometry" />
          </mxCell>
        </UserObject>
        <UserObject label="&lt;div style=&quot;font-size: 1px&quot;&gt;&lt;font style=&quot;font-size:28.22px;font-family:Calibri;color:#000000;direction:ltr;letter-spacing:0px;line-height:120%;opacity:1&quot;&gt;&lt;b&gt;&amp;lt;&amp;lt; Extend &amp;gt;&amp;gt;&lt;br/&gt;&lt;/b&gt;&lt;/font&gt;&lt;/div&gt;" tags="Background" id="34">
          <mxCell style="verticalAlign=middle;align=center;overflow=width;vsdxID=48;fillColor=none;gradientColor=none;shape=stencil(nZBLDoAgDERP0z3SIyjew0SURgSD+Lu9kMZoXLhwN9O+tukAlrNpJg1SzDH4QW/URgNYgZTkjA4UkwJUgGXng+6DX1zLfmoymdXo17xh5zmRJ6Q42BWCfc2oJfdAr+Yv+AP9Cb7OJ3H/2JG1HNGz/84klThPVCc=);strokeColor=none;points=[];labelBackgroundColor=none;rounded=0;html=1;whiteSpace=wrap;" parent="1" vertex="1">
            <mxGeometry x="1362" y="1212" width="190" height="38" as="geometry" />
          </mxCell>
        </UserObject>
        <UserObject label="" tags="Background" id="35">
          <mxCell style="vsdxID=49;fillColor=#bac8d3;shape=stencil(rVFbDsIgEDwNnyQU4glqvcfGblsilmZBS28vZGMsxg9j/JvZmX1kR5g2TLCg0CpE8hdcbR8nYY5CaztPSDZmJEwnTDt4wpH8be6ZL1CcBV39vUxI3KdKh1YbswPTEzuBzlmiVGmKau9zUKM+jlJJQrJBko8QrZ+rrQ5oRJnXyMHBWElhRVx25ebnw/5zVvPFWRm83jxY5zilvf4eSy5xpKZ7AA==);strokeColor=#23445d;points=[[0.5,0,0],[0.5,0.5,0],[0,0.5,0],[0.5,1,0],[1,0.5,0]];labelBackgroundColor=none;rounded=0;html=1;whiteSpace=wrap;" parent="1" vertex="1">
            <mxGeometry x="571" y="1299" width="261" height="180" as="geometry" />
          </mxCell>
        </UserObject>
        <UserObject label="&lt;div style=&quot;font-size: 1px&quot;&gt;&lt;font style=&quot;font-size:28.22px;font-family:Calibri;color:#000000;direction:ltr;letter-spacing:0px;line-height:120%;opacity:1&quot;&gt;&lt;b&gt;Lowest amount&lt;br/&gt;&lt;/b&gt;&lt;/font&gt;&lt;/div&gt;" tags="Background" id="36">
          <mxCell style="verticalAlign=middle;align=center;overflow=width;vsdxID=50;fillColor=#bac8d3;shape=stencil(nZBLDoAgDERP0z3SIyjew0SURgSD+Lu9kMZoXLhwN9O+tukAlrNpJg1SzDH4QW/URgNYgZTkjA4UkwJUgGXng+6DX1zLfmoymdXo17xh5zmRJ6Q42BWCfc2oJfdAr+Yv+AP9Cb7OJ3H/2JG1HNGz/84klThPVCc=);strokeColor=#23445d;points=[];labelBackgroundColor=none;rounded=0;html=1;whiteSpace=wrap;" parent="1" vertex="1">
            <mxGeometry x="581" y="1354" width="241" height="62" as="geometry" />
          </mxCell>
        </UserObject>
        <UserObject label="&lt;div style=&quot;font-size: 1px&quot;&gt;&lt;font style=&quot;font-size:28.22px;font-family:Calibri;color:#000000;direction:ltr;letter-spacing:0px;line-height:120%;opacity:1&quot;&gt;&lt;b&gt;&amp;lt;&amp;lt; Extend &amp;gt;&amp;gt;&lt;br/&gt;&lt;/b&gt;&lt;/font&gt;&lt;/div&gt;" tags="Background" id="37">
          <mxCell style="verticalAlign=middle;align=center;overflow=width;vsdxID=52;fillColor=none;gradientColor=none;shape=stencil(nZBLDoAgDERP0z3SIyjew0SURgSD+Lu9kMZoXLhwN9O+tukAlrNpJg1SzDH4QW/URgNYgZTkjA4UkwJUgGXng+6DX1zLfmoymdXo17xh5zmRJ6Q42BWCfc2oJfdAr+Yv+AP9Cb7OJ3H/2JG1HNGz/84klThPVCc=);strokeColor=none;points=[];labelBackgroundColor=none;rounded=0;html=1;whiteSpace=wrap;" parent="1" vertex="1">
            <mxGeometry x="823" y="1354" width="190" height="38" as="geometry" />
          </mxCell>
        </UserObject>
        <UserObject label="&lt;div style=&quot;font-size: 1px&quot;&gt;&lt;font style=&quot;font-size:28.22px;font-family:Calibri;color:#000000;direction:ltr;letter-spacing:0px;line-height:120%;opacity:1&quot;&gt;&lt;b&gt;Log Out&lt;br/&gt;&lt;/b&gt;&lt;/font&gt;&lt;/div&gt;" tags="Background" id="38">
          <mxCell style="verticalAlign=middle;align=center;overflow=width;vsdxID=53;fillColor=#bac8d3;shape=stencil(nZBLDoAgDERP0z3SIyjew0SURgSD+Lu9kMZoXLhwN9O+tukAlrNpJg1SzDH4QW/URgNYgZTkjA4UkwJUgGXng+6DX1zLfmoymdXo17xh5zmRJ6Q42BWCfc2oJfdAr+Yv+AP9Cb7OJ3H/2JG1HNGz/84klThPVCc=);strokeColor=#23445d;points=[];labelBackgroundColor=none;rounded=0;html=1;whiteSpace=wrap;" parent="1" vertex="1">
            <mxGeometry x="988" y="1513" width="339" height="84" as="geometry" />
          </mxCell>
        </UserObject>
        <UserObject label="" tags="Background" id="39">
          <mxCell style="vsdxID=55;fillColor=#bac8d3;shape=stencil(rVFbDsIgEDwNnyQU4glqvcfGblsilmZBS28vZGMsxg9j/JvZmX1kR5g2TLCg0CpE8hdcbR8nYY5CaztPSDZmJEwnTDt4wpH8be6ZL1CcBV39vUxI3KdKh1YbswPTEzuBzlmiVGmKau9zUKM+jlJJQrJBko8QrZ+rrQ5oRJnXyMHBWElhRVx25ebnw/5zVvPFWRm83jxY5zilvf4eSy5xpKZ7AA==);strokeColor=#23445d;points=[[0.5,0,0],[0.5,0.5,0],[0,0.5,0],[0.5,1,0],[1,0.5,0]];labelBackgroundColor=none;rounded=0;html=1;whiteSpace=wrap;" parent="1" vertex="1">
            <mxGeometry x="1579" y="1429" width="261" height="180" as="geometry" />
          </mxCell>
        </UserObject>
        <UserObject label="&lt;div style=&quot;font-size: 1px&quot;&gt;&lt;font style=&quot;font-size:28.22px;font-family:Calibri;color:#000000;direction:ltr;letter-spacing:0px;line-height:120%;opacity:1&quot;&gt;&lt;b&gt;Logged In&lt;br/&gt;&lt;/b&gt;&lt;/font&gt;&lt;/div&gt;" tags="Background" id="40">
          <mxCell style="verticalAlign=middle;align=center;overflow=width;vsdxID=56;fillColor=#bac8d3;shape=stencil(nZBLDoAgDERP0z3SIyjew0SURgSD+Lu9kMZoXLhwN9O+tukAlrNpJg1SzDH4QW/URgNYgZTkjA4UkwJUgGXng+6DX1zLfmoymdXo17xh5zmRJ6Q42BWCfc2oJfdAr+Yv+AP9Cb7OJ3H/2JG1HNGz/84klThPVCc=);strokeColor=#23445d;points=[];labelBackgroundColor=none;rounded=0;html=1;whiteSpace=wrap;" parent="1" vertex="1">
            <mxGeometry x="1625" y="1467" width="169" height="103" as="geometry" />
          </mxCell>
        </UserObject>
        <UserObject label="&lt;div style=&quot;font-size: 1px&quot;&gt;&lt;font style=&quot;font-size:28.22px;font-family:Calibri;color:#000000;direction:ltr;letter-spacing:0px;line-height:120%;opacity:1&quot;&gt;&lt;b&gt;&amp;lt;&amp;lt; include &amp;gt;&amp;gt;&lt;br/&gt;&lt;/b&gt;&lt;/font&gt;&lt;/div&gt;" tags="Background" id="41">
          <mxCell style="verticalAlign=middle;align=center;overflow=width;vsdxID=58;fillColor=none;gradientColor=none;shape=stencil(nZBLDoAgDERP0z3SIyjew0SURgSD+Lu9kMZoXLhwN9O+tukAlrNpJg1SzDH4QW/URgNYgZTkjA4UkwJUgGXng+6DX1zLfmoymdXo17xh5zmRJ6Q42BWCfc2oJfdAr+Yv+AP9Cb7OJ3H/2JG1HNGz/84klThPVCc=);strokeColor=none;points=[];labelBackgroundColor=none;rounded=0;html=1;whiteSpace=wrap;" parent="1" vertex="1">
            <mxGeometry x="1357" y="1441" width="190" height="38" as="geometry" />
          </mxCell>
        </UserObject>
        <UserObject label="" tags="Background" id="42">
          <mxCell style="vsdxID=69;fillColor=#bac8d3;shape=stencil(rVFBDsIwDHtNj5VCK14wxj8ilm0VZZ3SAuX3tAoIBhwQ4mbHjhMlyjZxxJmUgZg47OnsujQqu1HGuGkkdqkgZVtlmz4wDRyOUyd8xuqs6BBONSFLH9QOAxdha6FbcSLvisR5oQEvvfegFXyMgqwxu6g5JEwuTIupHnkgXcbo3uNwyxEpnonmt/Ivi/1nLfhirQIeZ+6d9/KlZ/31LaUkL7XtFQ==);strokeColor=#23445d;points=[[0.5,0,0],[0.5,0.5,0],[0,0.5,0],[0.5,1,0],[1,0.5,0]];labelBackgroundColor=none;rounded=0;html=1;whiteSpace=wrap;" parent="1" vertex="1">
            <mxGeometry x="1543" y="112" width="228" height="152" as="geometry" />
          </mxCell>
        </UserObject>
        <UserObject label="&lt;div style=&quot;font-size: 1px&quot;&gt;&lt;font style=&quot;font-size:28.22px;font-family:Calibri;color:#000000;direction:ltr;letter-spacing:0px;line-height:120%;opacity:1&quot;&gt;&lt;b&gt;Need to be Registered&lt;br/&gt;&lt;/b&gt;&lt;/font&gt;&lt;/div&gt;" tags="Background" id="43">
          <mxCell style="verticalAlign=middle;align=center;overflow=width;vsdxID=70;fillColor=#bac8d3;shape=stencil(nZBLDoAgDERP0z3SIyjew0SURgSD+Lu9kMZoXLhwN9O+tukAlrNpJg1SzDH4QW/URgNYgZTkjA4UkwJUgGXng+6DX1zLfmoymdXo17xh5zmRJ6Q42BWCfc2oJfdAr+Yv+AP9Cb7OJ3H/2JG1HNGz/84klThPVCc=);strokeColor=#23445d;points=[];labelBackgroundColor=none;rounded=0;html=1;whiteSpace=wrap;" parent="1" vertex="1">
            <mxGeometry x="1578" y="151" width="176" height="81" as="geometry" />
          </mxCell>
        </UserObject>
        <UserObject label="&lt;div style=&quot;font-size: 1px&quot;&gt;&lt;font style=&quot;font-size:28.22px;font-family:Calibri;color:#000000;direction:ltr;letter-spacing:0px;line-height:120%;opacity:1&quot;&gt;&lt;b&gt;Maintenance&lt;br/&gt;&lt;/b&gt;&lt;/font&gt;&lt;/div&gt;" tags="Background" id="44">
          <mxCell style="verticalAlign=middle;align=center;overflow=width;vsdxID=83;fillColor=#bac8d3;shape=stencil(nZBLDoAgDERP0z3SIyjew0SURgSD+Lu9kMZoXLhwN9O+tukAlrNpJg1SzDH4QW/URgNYgZTkjA4UkwJUgGXng+6DX1zLfmoymdXo17xh5zmRJ6Q42BWCfc2oJfdAr+Yv+AP9Cb7OJ3H/2JG1HNGz/84klThPVCc=);strokeColor=#23445d;points=[];labelBackgroundColor=none;rounded=0;html=1;whiteSpace=wrap;" parent="1" vertex="1">
            <mxGeometry x="988" y="1620" width="339" height="84" as="geometry" />
          </mxCell>
        </UserObject>
        <UserObject label="" tags="Background" id="45">
          <mxCell style="vsdxID=84;fillColor=none;gradientColor=none;strokeColor=none;points=[[1,0.5,0],[1,0.5,0],[0.5,0,0],[0.5,0,0]];labelBackgroundColor=none;rounded=0;html=1;whiteSpace=wrap;" parent="1" vertex="1">
            <mxGeometry x="94" y="807" width="99" height="113" as="geometry" />
          </mxCell>
        </UserObject>
        <mxCell id="46" style="vsdxID=85;fillColor=#4672c4;gradientColor=none;shape=stencil(tZTbjoIwEIafhksmPReuXX2PRlGbZcEUXPHtF9IB2xLNbszedaZ//68zPWR8053NpcoY6XrXflY3e+jPGf/IGLPNuXK2H0cZ32Z8c2xddXLttTn4+GIm5TT6ar8nh8Gvo4RMaxi5x/HOi2vbvBBrBUKH8v3VeXOaLsCEZlAKnxqYT5UFUI4qTKkSBEUVR5VECcZKA1Gv0EVgiylFQasYrkvgRQyXBTARwzUBxWO+lFAUr/hKPJwxJQVQFvOlBpnggw7NLJKwF8kTtuCr2uW68VwBS+HBDhHGgg79tnYW9Iuuu4owSmebx8Ez4DIp/o/nHpjS9W1CDomxet3zpOWrmx4/jDfeUCKOX+dSPYYcJA/Vxu3HWTdbs/kyufvS4uXGYyHPHMmQm8F2uWt709u2iQqrjTtV+UjLj7U5obef6m5VdQnS5L39Pa34X/Y3Dh4f49HWtf9Xw/n0Ix1T/hPm2x8=);strokeColor=#7030a0;spacingTop=-3;spacingBottom=-3;spacingLeft=-3;spacingRight=-3;points=[[1,0.5,0],[0,0.5,0],[0.5,0,0],[0.5,1,0]];labelBackgroundColor=none;rounded=0;html=1;whiteSpace=wrap;" parent="45" vertex="1">
          <mxGeometry width="99" height="113" as="geometry" />
        </mxCell>
        <UserObject label="&lt;div style=&quot;font-size: 1px&quot;&gt;&lt;font style=&quot;font-size:28.22px;font-family:Calibri;color:#000000;direction:ltr;letter-spacing:0px;line-height:120%;opacity:1&quot;&gt;&lt;b&gt;Admin&lt;br/&gt;&lt;/b&gt;&lt;/font&gt;&lt;/div&gt;" tags="Background" id="47">
          <mxCell style="verticalAlign=middle;align=center;overflow=width;vsdxID=87;fillColor=none;gradientColor=none;shape=stencil(nZBLDoAgDERP0z3SIyjew0SURgSD+Lu9kMZoXLhwN9O+tukAlrNpJg1SzDH4QW/URgNYgZTkjA4UkwJUgGXng+6DX1zLfmoymdXo17xh5zmRJ6Q42BWCfc2oJfdAr+Yv+AP9Cb7OJ3H/2JG1HNGz/84klThPVCc=);strokeColor=none;points=[];labelBackgroundColor=none;rounded=0;html=1;whiteSpace=wrap;" parent="1" vertex="1">
            <mxGeometry x="30" y="906" width="227" height="80" as="geometry" />
          </mxCell>
        </UserObject>
        <UserObject label="&lt;div style=&quot;font-size: 1px&quot;&gt;&lt;p style=&quot;text-align:center;margin-left:0;margin-right:0;margin-top:0px;margin-bottom:0px;text-indent:0;vertical-align:middle;direction:ltr;&quot;&gt;&lt;font style=&quot;font-size:28.22px;font-family:Calibri;color:#000000;direction:ltr;letter-spacing:0px;line-height:120%;opacity:1&quot;&gt;&lt;b&gt;Bill Generation&lt;br/&gt;&lt;/b&gt;&lt;/font&gt;&lt;/p&gt;&lt;/div&gt;" tags="Background" id="48">
          <mxCell style="verticalAlign=middle;align=center;overflow=width;vsdxID=103;fillColor=#bac8d3;shape=stencil(nZBLDoAgDERP0z3SIyjew0SURgSD+Lu9kMZoXLhwN9O+tukAlrNpJg1SzDH4QW/URgNYgZTkjA4UkwJUgGXng+6DX1zLfmoymdXo17xh5zmRJ6Q42BWCfc2oJfdAr+Yv+AP9Cb7OJ3H/2JG1HNGz/84klThPVCc=);strokeColor=#23445d;points=[];labelBackgroundColor=none;rounded=0;html=1;whiteSpace=wrap;" parent="1" vertex="1">
            <mxGeometry x="1024" y="1299" width="339" height="84" as="geometry" />
          </mxCell>
        </UserObject>
        <UserObject label="&lt;div style=&quot;font-size: 1px&quot;&gt;&lt;font style=&quot;font-size:28.22px;font-family:Calibri;color:#000000;direction:ltr;letter-spacing:0px;line-height:120%;opacity:1&quot;&gt;&lt;b&gt;&amp;lt;&amp;lt; include &amp;gt;&amp;gt;&lt;br/&gt;&lt;/b&gt;&lt;/font&gt;&lt;/div&gt;" tags="Background" id="49">
          <mxCell style="verticalAlign=middle;align=center;overflow=width;vsdxID=107;fillColor=none;gradientColor=none;shape=stencil(nZBLDoAgDERP0z3SIyjew0SURgSD+Lu9kMZoXLhwN9O+tukAlrNpJg1SzDH4QW/URgNYgZTkjA4UkwJUgGXng+6DX1zLfmoymdXo17xh5zmRJ6Q42BWCfc2oJfdAr+Yv+AP9Cb7OJ3H/2JG1HNGz/84klThPVCc=);strokeColor=none;points=[];labelBackgroundColor=none;rounded=0;html=1;whiteSpace=wrap;" parent="1" vertex="1">
            <mxGeometry x="1426" y="1597" width="190" height="38" as="geometry" />
          </mxCell>
        </UserObject>
        <UserObject label="" tags="Connector" id="50">
          <mxCell style="vsdxID=108;edgeStyle=none;startArrow=none;endArrow=block;startSize=5;endSize=5;strokeColor=#ff0000;spacingTop=0;spacingBottom=0;spacingLeft=0;spacingRight=0;verticalAlign=middle;html=1;labelBackgroundColor=#ffffff;rounded=0;exitX=0.5050505050505051;exitY=1.008849557522124;exitDx=0;exitDy=0;exitPerimeter=0;entryX=0;entryY=0.5;entryDx=0;entryDy=0;entryPerimeter=0;" parent="1" source="45" target="48" edge="1">
            <mxGeometry relative="1" as="geometry">
              <mxPoint as="offset" />
              <Array as="points">
                <mxPoint x="144" y="1341.56" />
              </Array>
            </mxGeometry>
          </mxCell>
        </UserObject>
        <UserObject label="" tags="Connector" id="51">
          <mxCell style="vsdxID=106;edgeStyle=none;startArrow=none;endArrow=block;startSize=5;endSize=5;strokeColor=#ffff00;spacingTop=0;spacingBottom=0;spacingLeft=0;spacingRight=0;verticalAlign=middle;html=1;labelBackgroundColor=#ffffff;rounded=0;exitX=0.5019157088122606;exitY=0.5;exitDx=0;exitDy=0;exitPerimeter=0;entryX=0.49852507374631266;entryY=1;entryDx=0;entryDy=0;entryPerimeter=0;" parent="1" source="39" target="48" edge="1">
            <mxGeometry relative="1" as="geometry">
              <mxPoint x="-1" as="offset" />
              <Array as="points">
                <mxPoint x="1710" y="1628.36" />
                <mxPoint x="1193.7199999999998" y="1628.36" />
              </Array>
            </mxGeometry>
          </mxCell>
        </UserObject>
        <UserObject label="" tags="Connector" id="52">
          <mxCell style="vsdxID=104;edgeStyle=none;startArrow=none;endArrow=block;startSize=5;endSize=5;strokeColor=#ffff00;spacingTop=0;spacingBottom=0;spacingLeft=0;spacingRight=0;verticalAlign=middle;html=1;labelBackgroundColor=#ffffff;rounded=0;exitX=0;exitY=0.504424778761062;exitDx=0;exitDy=0;exitPerimeter=0;entryX=1;entryY=0.5;entryDx=0;entryDy=0;entryPerimeter=0;jumpStyle=arc;" parent="1" source="3" target="48" edge="1">
            <mxGeometry relative="1" as="geometry">
              <mxPoint as="offset" />
              <Array as="points">
                <mxPoint x="2057.18" y="858" />
                <mxPoint x="1989.08" y="858" />
                <mxPoint x="1989.08" y="1341.41" />
                <mxPoint x="1855.5" y="1341.41" />
                <mxPoint x="1714.27" y="1341.41" />
                <mxPoint x="1559.4" y="1341.41" />
                <mxPoint x="1386.71" y="1341.41" />
              </Array>
            </mxGeometry>
          </mxCell>
        </UserObject>
        <UserObject label="" tags="Connector" id="53">
          <mxCell style="vsdxID=101;edgeStyle=none;startArrow=none;endArrow=block;startSize=5;endSize=5;strokeColor=#ff6f00;spacingTop=0;spacingBottom=0;spacingLeft=0;spacingRight=0;verticalAlign=middle;html=1;labelBackgroundColor=#ffffff;rounded=0;exitX=0.5050505050505051;exitY=1.008849557522124;exitDx=0;exitDy=0;exitPerimeter=0;entryX=0;entryY=0.5;entryDx=0;entryDy=0;entryPerimeter=0;" parent="1" source="45" target="44" edge="1">
            <mxGeometry relative="1" as="geometry">
              <mxPoint x="-1" as="offset" />
              <Array as="points">
                <mxPoint x="144" y="1662.64" />
              </Array>
            </mxGeometry>
          </mxCell>
        </UserObject>
        <UserObject label="" tags="Connector" id="54">
          <mxCell style="vsdxID=100;edgeStyle=none;startArrow=none;endArrow=block;startSize=5;endSize=5;strokeColor=#ff6f00;spacingTop=0;spacingBottom=0;spacingLeft=0;spacingRight=0;verticalAlign=middle;html=1;labelBackgroundColor=#ffffff;rounded=0;exitX=0.5050505050505051;exitY=1.008849557522124;exitDx=0;exitDy=0;exitPerimeter=0;entryX=0;entryY=0.5;entryDx=0;entryDy=0;entryPerimeter=0;" parent="1" source="45" target="38" edge="1">
            <mxGeometry relative="1" as="geometry">
              <mxPoint x="-1" as="offset" />
              <Array as="points">
                <mxPoint x="144" y="1555.17" />
              </Array>
            </mxGeometry>
          </mxCell>
        </UserObject>
        <UserObject label="" tags="Connector" id="55">
          <mxCell style="vsdxID=99;edgeStyle=none;startArrow=none;endArrow=block;startSize=5;endSize=5;strokeColor=#ff6f00;spacingTop=0;spacingBottom=0;spacingLeft=0;spacingRight=0;verticalAlign=middle;html=1;labelBackgroundColor=#ffffff;rounded=0;exitX=0.5050505050505051;exitY=1.008849557522124;exitDx=0;exitDy=0;exitPerimeter=0;entryX=0;entryY=0.35714285714285715;entryDx=0;entryDy=0;entryPerimeter=0;" parent="1" source="45" target="27" edge="1">
            <mxGeometry relative="1" as="geometry">
              <mxPoint x="-1" as="offset" />
              <Array as="points">
                <mxPoint x="144" y="1175.49" />
              </Array>
            </mxGeometry>
          </mxCell>
        </UserObject>
        <UserObject label="" tags="Connector" id="56">
          <mxCell style="vsdxID=98;edgeStyle=none;startArrow=none;endArrow=block;startSize=5;endSize=5;strokeColor=#ff6f00;spacingTop=0;spacingBottom=0;spacingLeft=0;spacingRight=0;verticalAlign=middle;html=1;labelBackgroundColor=#ffffff;rounded=0;exitX=0.5050505050505051;exitY=1.008849557522124;exitDx=0;exitDy=0;exitPerimeter=0;entryX=0;entryY=0.35714285714285715;entryDx=0;entryDy=0;entryPerimeter=0;jumpStyle=arc;" parent="1" source="45" target="18" edge="1">
            <mxGeometry relative="1" as="geometry">
              <mxPoint x="-1" as="offset" />
              <Array as="points">
                <mxPoint x="144" y="940.05" />
                <mxPoint x="212.96000000000004" y="940.05" />
                <mxPoint x="212.96000000000004" y="886.6399999999999" />
                <mxPoint x="552.6099999999999" y="886.6399999999999" />
                <mxPoint x="1006.3699999999999" y="886.6399999999999" />
              </Array>
            </mxGeometry>
          </mxCell>
        </UserObject>
        <UserObject label="" tags="Connector" id="57">
          <mxCell style="vsdxID=97;edgeStyle=none;startArrow=none;endArrow=block;startSize=5;endSize=5;strokeColor=#ff6f00;spacingTop=0;spacingBottom=0;spacingLeft=0;spacingRight=0;verticalAlign=middle;html=1;labelBackgroundColor=#ffffff;rounded=0;exitX=0.5050505050505051;exitY=0;exitDx=0;exitDy=0;exitPerimeter=0;entryX=0.26253687315634217;entryY=1.0119047619047619;entryDx=0;entryDy=0;entryPerimeter=0;jumpStyle=arc;" parent="1" source="45" target="13" edge="1">
            <mxGeometry relative="1" as="geometry">
              <mxPoint x="-1" as="offset" />
              <Array as="points">
                <mxPoint x="144" y="802.24" />
                <mxPoint x="208.73000000000002" y="802.24" />
                <mxPoint x="556.8399999999999" y="802.24" />
                <mxPoint x="556.8399999999999" y="898.5" />
                <mxPoint x="1010.5999999999999" y="898.5" />
                <mxPoint x="1010.5999999999999" y="850.3499999999999" />
                <mxPoint x="1103.58" y="850.3499999999999" />
              </Array>
            </mxGeometry>
          </mxCell>
        </UserObject>
        <UserObject label="" tags="Connector" id="58">
          <mxCell style="vsdxID=96;edgeStyle=none;startArrow=none;endArrow=block;startSize=5;endSize=5;strokeColor=#ff6f00;spacingTop=0;spacingBottom=0;spacingLeft=0;spacingRight=0;verticalAlign=middle;html=1;labelBackgroundColor=#ffffff;rounded=0;exitX=0.5050505050505051;exitY=0;exitDx=0;exitDy=0;exitPerimeter=0;entryX=0;entryY=0.2857142857142857;entryDx=0;entryDy=0;entryPerimeter=0;jumpStyle=arc;" parent="1" source="45" target="12" edge="1">
            <mxGeometry relative="1" as="geometry">
              <mxPoint as="offset" />
              <Array as="points">
                <mxPoint x="144" y="689.66" />
                <mxPoint x="208.73000000000002" y="689.66" />
              </Array>
            </mxGeometry>
          </mxCell>
        </UserObject>
        <UserObject label="" tags="Connector" id="59">
          <mxCell style="vsdxID=95;edgeStyle=none;startArrow=none;endArrow=block;startSize=5;endSize=5;strokeColor=#ff6f00;spacingTop=0;spacingBottom=0;spacingLeft=0;spacingRight=0;verticalAlign=middle;html=1;labelBackgroundColor=#ffffff;rounded=0;exitX=0.5050505050505051;exitY=0;exitDx=0;exitDy=0;exitPerimeter=0;entryX=0;entryY=0.5;entryDx=0;entryDy=0;entryPerimeter=0;jumpStyle=arc;" parent="1" source="45" target="11" edge="1">
            <mxGeometry relative="1" as="geometry">
              <mxPoint x="-1" as="offset" />
              <Array as="points">
                <mxPoint x="144" y="613.31" />
                <mxPoint x="208.73000000000002" y="613.31" />
              </Array>
            </mxGeometry>
          </mxCell>
        </UserObject>
        <UserObject label="" tags="Connector" id="60">
          <mxCell style="vsdxID=94;edgeStyle=none;startArrow=none;endArrow=block;startSize=5;endSize=5;strokeColor=#ff6f00;spacingTop=0;spacingBottom=0;spacingLeft=0;spacingRight=0;verticalAlign=middle;html=1;labelBackgroundColor=#ffffff;rounded=0;exitX=0.5050505050505051;exitY=0;exitDx=0;exitDy=0;exitPerimeter=0;entryX=0;entryY=0.5;entryDx=0;entryDy=0;entryPerimeter=0;jumpStyle=arc;" parent="1" source="45" target="10" edge="1">
            <mxGeometry relative="1" as="geometry">
              <mxPoint as="offset" />
              <Array as="points">
                <mxPoint x="144" y="518.26" />
                <mxPoint x="208.73000000000002" y="518.26" />
              </Array>
            </mxGeometry>
          </mxCell>
        </UserObject>
        <UserObject label="" tags="Connector" id="61">
          <mxCell style="vsdxID=92;edgeStyle=none;startArrow=none;endArrow=block;startSize=5;endSize=5;strokeColor=#ff6f00;spacingTop=0;spacingBottom=0;spacingLeft=0;spacingRight=0;verticalAlign=middle;html=1;labelBackgroundColor=#ffffff;rounded=0;exitX=0.14096916299559473;exitY=0;exitDx=0;exitDy=0;exitPerimeter=0;entryX=0;entryY=0.5;entryDx=0;entryDy=0;entryPerimeter=0;jumpStyle=arc;" parent="1" source="47" target="9" edge="1">
            <mxGeometry relative="1" as="geometry">
              <mxPoint as="offset" />
              <Array as="points">
                <mxPoint x="62" y="423.06999999999994" />
                <mxPoint x="208.57999999999993" y="423.06999999999994" />
              </Array>
            </mxGeometry>
          </mxCell>
        </UserObject>
        <UserObject label="" tags="Connector" id="62">
          <mxCell style="vsdxID=91;edgeStyle=none;startArrow=none;endArrow=block;startSize=5;endSize=5;strokeColor=#ff6f00;spacingTop=0;spacingBottom=0;spacingLeft=0;spacingRight=0;verticalAlign=middle;html=1;labelBackgroundColor=#ffffff;rounded=0;exitX=1.0101010101010102;exitY=0.504424778761062;exitDx=0;exitDy=0;exitPerimeter=0;entryX=0;entryY=0.5;entryDx=0;entryDy=0;entryPerimeter=0;" parent="1" source="45" target="8" edge="1">
            <mxGeometry relative="1" as="geometry">
              <mxPoint x="-1" as="offset" />
              <Array as="points">
                <mxPoint x="213.04999999999995" y="864" />
                <mxPoint x="213.04999999999995" y="328.35" />
              </Array>
            </mxGeometry>
          </mxCell>
        </UserObject>
        <UserObject label="" tags="Connector" id="63">
          <mxCell style="vsdxID=31;edgeStyle=none;startArrow=none;endArrow=block;startSize=5;endSize=5;strokeColor=#ff0000;spacingTop=0;spacingBottom=0;spacingLeft=0;spacingRight=0;verticalAlign=middle;html=1;labelBackgroundColor=#ffffff;rounded=0;exitX=0.14454277286135694;exitY=1.0119047619047619;exitDx=0;exitDy=0;exitPerimeter=0;entryX=1.003831417624521;entryY=0.5;entryDx=0;entryDy=0;entryPerimeter=0;" parent="1" source="18" target="21" edge="1">
            <mxGeometry relative="1" as="geometry">
              <mxPoint x="-1" as="offset" />
              <Array as="points">
                <mxPoint x="1064" y="1013.76" />
              </Array>
            </mxGeometry>
          </mxCell>
        </UserObject>
        <UserObject label="" tags="Connector" id="64">
          <mxCell style="vsdxID=23;edgeStyle=none;startArrow=none;endArrow=block;startSize=5;endSize=5;strokeColor=#ff0000;spacingTop=0;spacingBottom=0;spacingLeft=0;spacingRight=0;verticalAlign=middle;html=1;labelBackgroundColor=#ffffff;rounded=0;exitX=1.0029498525073746;exitY=0.4642857142857143;exitDx=0;exitDy=0;exitPerimeter=0;entryX=0;entryY=0.5;entryDx=0;entryDy=0;entryPerimeter=0;" parent="1" source="13" target="14" edge="1">
            <mxGeometry relative="1" as="geometry">
              <mxPoint x="-1" as="offset" />
              <Array as="points" />
            </mxGeometry>
          </mxCell>
        </UserObject>
        <UserObject label="" tags="Connector" id="65">
          <mxCell style="vsdxID=22;edgeStyle=none;startArrow=none;endArrow=block;startSize=5;endSize=5;strokeColor=#ff0000;spacingTop=0;spacingBottom=0;spacingLeft=0;spacingRight=0;verticalAlign=middle;html=1;labelBackgroundColor=#ffffff;rounded=0;exitX=0;exitY=0.35714285714285715;exitDx=0;exitDy=0;exitPerimeter=0;entryX=1.0035714285714286;entryY=0.5055555555555555;entryDx=0;entryDy=0;entryPerimeter=0;" parent="1" source="13" target="15" edge="1">
            <mxGeometry relative="1" as="geometry">
              <mxPoint y="-1" as="offset" />
              <Array as="points">
                <mxPoint x="928.6099999999999" y="791" />
                <mxPoint x="928.6099999999999" y="803.26" />
              </Array>
            </mxGeometry>
          </mxCell>
        </UserObject>
        <UserObject label="" tags="Connector" id="66">
          <mxCell style="vsdxID=21;edgeStyle=none;startArrow=none;endArrow=block;startSize=5;endSize=5;strokeColor=#4672c4;spacingTop=0;spacingBottom=0;spacingLeft=0;spacingRight=0;verticalAlign=middle;html=1;labelBackgroundColor=#ffffff;rounded=0;exitX=0;exitY=0.5119047619047619;exitDx=0;exitDy=0;exitPerimeter=0;entryX=1.0035714285714286;entryY=0.5055555555555555;entryDx=0;entryDy=0;entryPerimeter=0;" parent="1" source="13" target="15" edge="1">
            <mxGeometry relative="1" as="geometry">
              <mxPoint x="-1" as="offset" />
              <Array as="points" />
            </mxGeometry>
          </mxCell>
        </UserObject>
        <UserObject label="" tags="Connector" id="67">
          <mxCell style="vsdxID=36;edgeStyle=none;startArrow=none;endArrow=block;startSize=5;endSize=5;strokeColor=#ff0000;spacingTop=0;spacingBottom=0;spacingLeft=0;spacingRight=0;verticalAlign=middle;html=1;labelBackgroundColor=#ffffff;rounded=0;exitX=0.6814159292035398;exitY=1.0119047619047619;exitDx=0;exitDy=0;exitPerimeter=0;entryX=0;entryY=0.5;entryDx=0;entryDy=0;entryPerimeter=0;jumpStyle=arc;" parent="1" source="18" target="24" edge="1">
            <mxGeometry relative="1" as="geometry">
              <mxPoint as="offset" />
              <Array as="points">
                <mxPoint x="1246" y="1010.31" />
                <mxPoint x="1518.0300000000002" y="1010.31" />
              </Array>
            </mxGeometry>
          </mxCell>
        </UserObject>
        <UserObject label="" tags="Connector" id="68">
          <mxCell style="vsdxID=39;edgeStyle=none;startArrow=none;endArrow=block;startSize=5;endSize=5;strokeColor=#000000;spacingTop=0;spacingBottom=0;spacingLeft=0;spacingRight=0;verticalAlign=middle;html=1;labelBackgroundColor=#ffffff;rounded=0;exitX=0.35988200589970504;exitY=1.0119047619047619;exitDx=0;exitDy=0;exitPerimeter=0;entryX=0.35988200589970504;entryY=0;entryDx=0;entryDy=0;entryPerimeter=0;" parent="1" source="18" target="27" edge="1">
            <mxGeometry relative="1" as="geometry">
              <mxPoint x="12" as="offset" />
              <Array as="points" />
            </mxGeometry>
          </mxCell>
        </UserObject>
        <UserObject label="" tags="Connector" id="69">
          <mxCell style="vsdxID=43;edgeStyle=none;startArrow=none;endArrow=block;startSize=5;endSize=5;strokeColor=#ff0000;spacingTop=0;spacingBottom=0;spacingLeft=0;spacingRight=0;verticalAlign=middle;html=1;labelBackgroundColor=#ffffff;rounded=0;exitX=0;exitY=0.7142857142857143;exitDx=0;exitDy=0;exitPerimeter=0;entryX=1.003831417624521;entryY=0.5055555555555555;entryDx=0;entryDy=0;entryPerimeter=0;" parent="1" source="27" target="29" edge="1">
            <mxGeometry relative="1" as="geometry">
              <mxPoint x="-1" as="offset" />
              <Array as="points" />
            </mxGeometry>
          </mxCell>
        </UserObject>
        <UserObject label="" tags="Connector" id="70">
          <mxCell style="vsdxID=46;edgeStyle=none;startArrow=none;endArrow=block;startSize=5;endSize=5;strokeColor=#ff0000;spacingTop=0;spacingBottom=0;spacingLeft=0;spacingRight=0;verticalAlign=middle;html=1;labelBackgroundColor=#ffffff;rounded=0;exitX=1.0029498525073746;exitY=0.6666666666666666;exitDx=0;exitDy=0;exitPerimeter=0;entryX=0;entryY=0.5;entryDx=0;entryDy=0;entryPerimeter=0;jumpStyle=arc;" parent="1" source="27" target="31" edge="1">
            <mxGeometry relative="1" as="geometry">
              <mxPoint as="offset" />
              <Array as="points">
                <mxPoint x="1355.5300000000002" y="1201" />
              </Array>
            </mxGeometry>
          </mxCell>
        </UserObject>
        <UserObject label="" tags="Connector" id="71">
          <mxCell style="vsdxID=51;edgeStyle=none;startArrow=none;endArrow=block;startSize=5;endSize=5;strokeColor=#ff0000;spacingTop=0;spacingBottom=0;spacingLeft=0;spacingRight=0;verticalAlign=middle;html=1;labelBackgroundColor=#ffffff;rounded=0;exitX=0.014749262536873156;exitY=1.0119047619047619;exitDx=0;exitDy=0;exitPerimeter=0;entryX=1.003831417624521;entryY=0.5;entryDx=0;entryDy=0;entryPerimeter=0;" parent="1" source="27" target="35" edge="1">
            <mxGeometry relative="1" as="geometry">
              <mxPoint x="-1" as="offset" />
              <Array as="points">
                <mxPoint x="1020" y="1389.53" />
              </Array>
            </mxGeometry>
          </mxCell>
        </UserObject>
        <UserObject label="" tags="Connector" id="72">
          <mxCell style="vsdxID=57;edgeStyle=none;startArrow=none;endArrow=block;startSize=5;endSize=5;strokeColor=#ffff00;spacingTop=0;spacingBottom=0;spacingLeft=0;spacingRight=0;verticalAlign=middle;html=1;labelBackgroundColor=#ffffff;rounded=0;exitX=1;exitY=0.07142857142857142;exitDx=0;exitDy=0;exitPerimeter=0;entryX=0;entryY=0.5;entryDx=0;entryDy=0;entryPerimeter=0;" parent="1" source="38" target="39" edge="1">
            <mxGeometry relative="1" as="geometry">
              <mxPoint x="-1" as="offset" />
              <Array as="points" />
            </mxGeometry>
          </mxCell>
        </UserObject>
        <UserObject label="" tags="Connector" id="73">
          <mxCell style="vsdxID=59;edgeStyle=none;startArrow=none;endArrow=block;startSize=5;endSize=5;strokeColor=#ffff00;spacingTop=0;spacingBottom=0;spacingLeft=0;spacingRight=0;verticalAlign=middle;html=1;labelBackgroundColor=#ffffff;rounded=0;exitX=0.5014749262536873;exitY=1.0119047619047619;exitDx=0;exitDy=0;exitPerimeter=0;entryX=0;entryY=0.5;entryDx=0;entryDy=0;entryPerimeter=0;jumpStyle=arc;" parent="1" source="27" target="39" edge="1">
            <mxGeometry relative="1" as="geometry">
              <mxPoint y="-1" as="offset" />
              <Array as="points">
                <mxPoint x="1185" y="1280.18" />
                <mxPoint x="1352.8200000000002" y="1280.18" />
                <mxPoint x="1382.1399999999999" y="1280.18" />
                <mxPoint x="1382.1399999999999" y="1422.19" />
                <mxPoint x="1346.1100000000001" y="1422.19" />
                <mxPoint x="1346.1100000000001" y="1519.06" />
              </Array>
            </mxGeometry>
          </mxCell>
        </UserObject>
        <UserObject label="" tags="Connector" id="74">
          <mxCell style="vsdxID=61;edgeStyle=none;startArrow=none;endArrow=block;startSize=5;endSize=5;strokeColor=#ffff00;spacingTop=0;spacingBottom=0;spacingLeft=0;spacingRight=0;verticalAlign=middle;html=1;labelBackgroundColor=#ffffff;rounded=0;exitX=1.0029498525073746;exitY=0.5119047619047619;exitDx=0;exitDy=0;exitPerimeter=0;entryX=0.5019157088122606;entryY=0;entryDx=0;entryDy=0;entryPerimeter=0;jumpStyle=arc;" parent="1" source="27" target="39" edge="1">
            <mxGeometry relative="1" as="geometry">
              <mxPoint y="-1" as="offset" />
              <Array as="points">
                <mxPoint x="1355.5300000000002" y="1188" />
                <mxPoint x="1557.5500000000002" y="1188" />
                <mxPoint x="1557.5500000000002" y="1294.4" />
                <mxPoint x="1710.0300000000002" y="1294.4" />
              </Array>
            </mxGeometry>
          </mxCell>
        </UserObject>
        <UserObject label="" tags="Connector" id="75">
          <mxCell style="vsdxID=62;edgeStyle=none;startArrow=none;endArrow=block;startSize=5;endSize=5;strokeColor=#ffff00;spacingTop=0;spacingBottom=0;spacingLeft=0;spacingRight=0;verticalAlign=middle;html=1;labelBackgroundColor=#ffffff;rounded=0;exitX=0.5693215339233039;exitY=1.0119047619047619;exitDx=0;exitDy=0;exitPerimeter=0;entryX=0;entryY=0.5;entryDx=0;entryDy=0;entryPerimeter=0;jumpStyle=arc;" parent="1" source="18" target="39" edge="1">
            <mxGeometry relative="1" as="geometry">
              <mxPoint y="-1" as="offset" />
              <Array as="points">
                <mxPoint x="1208" y="1143.38" />
                <mxPoint x="1357.1399999999999" y="1143.38" />
                <mxPoint x="1357.1399999999999" y="1296.94" />
                <mxPoint x="1378" y="1296.94" />
                <mxPoint x="1549.6100000000001" y="1296.94" />
                <mxPoint x="1549.6100000000001" y="1519.15" />
              </Array>
            </mxGeometry>
          </mxCell>
        </UserObject>
        <UserObject label="" tags="Connector" id="76">
          <mxCell style="vsdxID=63;edgeStyle=none;startArrow=none;endArrow=block;startSize=5;endSize=5;strokeColor=#ffff00;spacingTop=0;spacingBottom=0;spacingLeft=0;spacingRight=0;verticalAlign=middle;html=1;labelBackgroundColor=#ffffff;rounded=0;exitX=0.5693215339233039;exitY=1.0119047619047619;exitDx=0;exitDy=0;exitPerimeter=0;entryX=0;entryY=0.5;entryDx=0;entryDy=0;entryPerimeter=0;jumpStyle=arc;" parent="1" source="13" target="39" edge="1">
            <mxGeometry relative="1" as="geometry">
              <mxPoint as="offset" />
              <Array as="points">
                <mxPoint x="1208" y="851.97" />
                <mxPoint x="1262.31" y="851.97" />
                <mxPoint x="1359.5300000000002" y="851.97" />
                <mxPoint x="1359.5300000000002" y="959.75" />
                <mxPoint x="1522.1799999999998" y="959.75" />
                <mxPoint x="1522.1799999999998" y="1141.06" />
                <mxPoint x="1359.5300000000002" y="1141.06" />
                <mxPoint x="1359.5300000000002" y="1207.82" />
                <mxPoint x="1554.9299999999998" y="1207.82" />
                <mxPoint x="1554.9299999999998" y="1519.21" />
              </Array>
            </mxGeometry>
          </mxCell>
        </UserObject>
        <UserObject label="" tags="Connector" id="77">
          <mxCell style="vsdxID=64;edgeStyle=none;startArrow=none;endArrow=block;startSize=5;endSize=5;strokeColor=#ffff00;spacingTop=0;spacingBottom=0;spacingLeft=0;spacingRight=0;verticalAlign=middle;html=1;labelBackgroundColor=#ffffff;rounded=0;exitX=1.0029498525073746;exitY=0.35714285714285715;exitDx=0;exitDy=0;exitPerimeter=0;entryX=0.5019157088122606;entryY=0;entryDx=0;entryDy=0;entryPerimeter=0;" parent="1" source="12" target="39" edge="1">
            <mxGeometry relative="1" as="geometry">
              <mxPoint as="offset" />
              <Array as="points">
                <mxPoint x="1851.2600000000002" y="696" />
                <mxPoint x="1851.2600000000002" y="1409.91" />
                <mxPoint x="1710.0300000000002" y="1409.91" />
              </Array>
            </mxGeometry>
          </mxCell>
        </UserObject>
        <UserObject label="" tags="Connector" id="78">
          <mxCell style="vsdxID=65;edgeStyle=none;startArrow=none;endArrow=block;startSize=5;endSize=5;strokeColor=#ffff00;spacingTop=0;spacingBottom=0;spacingLeft=0;spacingRight=0;verticalAlign=middle;html=1;labelBackgroundColor=#ffffff;rounded=0;exitX=1.0029498525073746;exitY=0.5;exitDx=0;exitDy=0;exitPerimeter=0;entryX=0.5019157088122606;entryY=0;entryDx=0;entryDy=0;entryPerimeter=0;" parent="1" source="11" target="39" edge="1">
            <mxGeometry relative="1" as="geometry">
              <mxPoint as="offset" />
              <Array as="points">
                <mxPoint x="1851.2600000000002" y="613" />
                <mxPoint x="1851.2600000000002" y="1409.13" />
                <mxPoint x="1710.0300000000002" y="1409.13" />
              </Array>
            </mxGeometry>
          </mxCell>
        </UserObject>
        <UserObject label="" tags="Connector" id="79">
          <mxCell style="vsdxID=66;edgeStyle=none;startArrow=none;endArrow=block;startSize=5;endSize=5;strokeColor=#ffff00;spacingTop=0;spacingBottom=0;spacingLeft=0;spacingRight=0;verticalAlign=middle;html=1;labelBackgroundColor=#ffffff;rounded=0;exitX=1.0029498525073746;exitY=0.34523809523809523;exitDx=0;exitDy=0;exitPerimeter=0;entryX=0.5019157088122606;entryY=0;entryDx=0;entryDy=0;entryPerimeter=0;" parent="1" source="10" target="39" edge="1">
            <mxGeometry relative="1" as="geometry">
              <mxPoint as="offset" />
              <Array as="points">
                <mxPoint x="1851.2600000000002" y="505" />
                <mxPoint x="1851.2600000000002" y="1409.03" />
                <mxPoint x="1710.0300000000002" y="1409.03" />
              </Array>
            </mxGeometry>
          </mxCell>
        </UserObject>
        <UserObject label="" tags="Connector" id="80">
          <mxCell style="vsdxID=67;edgeStyle=none;startArrow=none;endArrow=block;startSize=5;endSize=5;strokeColor=#ffff00;spacingTop=0;spacingBottom=0;spacingLeft=0;spacingRight=0;verticalAlign=middle;html=1;labelBackgroundColor=#ffffff;rounded=0;exitX=1.0029498525073746;exitY=0.34523809523809523;exitDx=0;exitDy=0;exitPerimeter=0;entryX=0.5019157088122606;entryY=0;entryDx=0;entryDy=0;entryPerimeter=0;" parent="1" source="9" target="39" edge="1">
            <mxGeometry relative="1" as="geometry">
              <mxPoint y="-1" as="offset" />
              <Array as="points">
                <mxPoint x="1851.2600000000002" y="410" />
                <mxPoint x="1851.2600000000002" y="1409.09" />
                <mxPoint x="1710.0300000000002" y="1409.09" />
              </Array>
            </mxGeometry>
          </mxCell>
        </UserObject>
        <UserObject label="" tags="Connector" id="81">
          <mxCell style="vsdxID=68;edgeStyle=none;startArrow=none;endArrow=block;startSize=5;endSize=5;strokeColor=#ffff00;spacingTop=0;spacingBottom=0;spacingLeft=0;spacingRight=0;verticalAlign=middle;html=1;labelBackgroundColor=#ffffff;rounded=0;exitX=1.0029498525073746;exitY=0.34523809523809523;exitDx=0;exitDy=0;exitPerimeter=0;entryX=0.5019157088122606;entryY=0;entryDx=0;entryDy=0;entryPerimeter=0;" parent="1" source="8" target="39" edge="1">
            <mxGeometry relative="1" as="geometry">
              <mxPoint as="offset" />
              <Array as="points">
                <mxPoint x="1851.2600000000002" y="315" />
                <mxPoint x="1851.2600000000002" y="1409.14" />
                <mxPoint x="1710.0300000000002" y="1409.14" />
              </Array>
            </mxGeometry>
          </mxCell>
        </UserObject>
        <UserObject label="" tags="Connector" id="82">
          <mxCell style="vsdxID=71;edgeStyle=none;startArrow=none;endArrow=block;startSize=5;endSize=5;strokeColor=#ff0000;spacingTop=0;spacingBottom=0;spacingLeft=0;spacingRight=0;verticalAlign=middle;html=1;labelBackgroundColor=#ffffff;rounded=0;exitX=1.0029498525073746;exitY=0.34523809523809523;exitDx=0;exitDy=0;exitPerimeter=0;entryX=0;entryY=0.5;entryDx=0;entryDy=0;entryPerimeter=0;" parent="1" source="7" target="42" edge="1">
            <mxGeometry relative="1" as="geometry">
              <mxPoint as="offset" />
              <Array as="points">
                <mxPoint x="1374.0500000000002" y="220" />
                <mxPoint x="1374.0500000000002" y="187.84000000000003" />
              </Array>
            </mxGeometry>
          </mxCell>
        </UserObject>
        <UserObject label="" tags="Connector" id="83">
          <mxCell style="vsdxID=73;edgeStyle=none;startArrow=none;endArrow=block;startSize=5;endSize=5;strokeColor=#ff6f00;spacingTop=0;spacingBottom=0;spacingLeft=0;spacingRight=0;verticalAlign=middle;html=1;labelBackgroundColor=#ffffff;rounded=0;exitX=0.5050505050505051;exitY=0;exitDx=0;exitDy=0;exitPerimeter=0;entryX=1.0029498525073746;entryY=0.09523809523809523;entryDx=0;entryDy=0;entryPerimeter=0;" parent="1" source="3" target="6" edge="1">
            <mxGeometry relative="1" as="geometry">
              <mxPoint as="offset" />
              <Array as="points">
                <mxPoint x="2122" y="103.94" />
              </Array>
            </mxGeometry>
          </mxCell>
        </UserObject>
        <UserObject label="" tags="Connector" id="84">
          <mxCell style="vsdxID=74;edgeStyle=none;startArrow=none;endArrow=block;startSize=5;endSize=5;strokeColor=#ff6f00;spacingTop=0;spacingBottom=0;spacingLeft=0;spacingRight=0;verticalAlign=middle;html=1;labelBackgroundColor=#ffffff;rounded=0;exitX=0.5050505050505051;exitY=1.008849557522124;exitDx=0;exitDy=0;exitPerimeter=0;entryX=1.0029498525073746;entryY=0.6428571428571429;entryDx=0;entryDy=0;entryPerimeter=0;" parent="1" source="3" target="7" edge="1">
            <mxGeometry relative="1" as="geometry">
              <mxPoint y="-1" as="offset" />
              <Array as="points">
                <mxPoint x="2122" y="934.05" />
                <mxPoint x="2053.04" y="934.05" />
                <mxPoint x="2053.04" y="245.83000000000004" />
              </Array>
            </mxGeometry>
          </mxCell>
        </UserObject>
        <UserObject label="" tags="Connector" id="85">
          <mxCell style="vsdxID=75;edgeStyle=none;startArrow=none;endArrow=block;startSize=5;endSize=5;strokeColor=#ff6f00;spacingTop=0;spacingBottom=0;spacingLeft=0;spacingRight=0;verticalAlign=middle;html=1;labelBackgroundColor=#ffffff;rounded=0;exitX=0.5050505050505051;exitY=1.008849557522124;exitDx=0;exitDy=0;exitPerimeter=0;entryX=1.0029498525073746;entryY=0.6428571428571429;entryDx=0;entryDy=0;entryPerimeter=0;jumpStyle=arc;" parent="1" source="3" target="8" edge="1">
            <mxGeometry relative="1" as="geometry">
              <mxPoint as="offset" />
              <Array as="points">
                <mxPoint x="2122" y="934.05" />
                <mxPoint x="2053.04" y="934.05" />
                <mxPoint x="2053.04" y="340.89" />
                <mxPoint x="1855.5900000000001" y="340.89" />
              </Array>
            </mxGeometry>
          </mxCell>
        </UserObject>
        <UserObject label="" tags="Connector" id="86">
          <mxCell style="vsdxID=76;edgeStyle=none;startArrow=none;endArrow=block;startSize=5;endSize=5;strokeColor=#ff6f00;spacingTop=0;spacingBottom=0;spacingLeft=0;spacingRight=0;verticalAlign=middle;html=1;labelBackgroundColor=#ffffff;rounded=0;exitX=0.5050505050505051;exitY=1.008849557522124;exitDx=0;exitDy=0;exitPerimeter=0;entryX=1.0029498525073746;entryY=0.6547619047619048;entryDx=0;entryDy=0;entryPerimeter=0;jumpStyle=arc;" parent="1" source="3" target="9" edge="1">
            <mxGeometry relative="1" as="geometry">
              <mxPoint x="-1" as="offset" />
              <Array as="points">
                <mxPoint x="2122" y="934.05" />
                <mxPoint x="2053.04" y="934.05" />
                <mxPoint x="2053.04" y="435.95000000000005" />
                <mxPoint x="1855.5900000000001" y="435.95000000000005" />
              </Array>
            </mxGeometry>
          </mxCell>
        </UserObject>
        <UserObject label="" tags="Connector" id="87">
          <mxCell style="vsdxID=77;edgeStyle=none;startArrow=none;endArrow=block;startSize=5;endSize=5;strokeColor=#ff6f00;spacingTop=0;spacingBottom=0;spacingLeft=0;spacingRight=0;verticalAlign=middle;html=1;labelBackgroundColor=#ffffff;rounded=0;exitX=0.5050505050505051;exitY=1.008849557522124;exitDx=0;exitDy=0;exitPerimeter=0;entryX=1.0029498525073746;entryY=0.6547619047619048;entryDx=0;entryDy=0;entryPerimeter=0;jumpStyle=arc;" parent="1" source="3" target="10" edge="1">
            <mxGeometry relative="1" as="geometry">
              <mxPoint as="offset" />
              <Array as="points">
                <mxPoint x="2122" y="934.05" />
                <mxPoint x="2053.04" y="934.05" />
                <mxPoint x="2053.04" y="531" />
                <mxPoint x="1855.5900000000001" y="531" />
              </Array>
            </mxGeometry>
          </mxCell>
        </UserObject>
        <UserObject label="" tags="Connector" id="88">
          <mxCell style="vsdxID=78;edgeStyle=none;startArrow=none;endArrow=block;startSize=5;endSize=5;strokeColor=#ff6f00;spacingTop=0;spacingBottom=0;spacingLeft=0;spacingRight=0;verticalAlign=middle;html=1;labelBackgroundColor=#ffffff;rounded=0;exitX=0.5050505050505051;exitY=1.008849557522124;exitDx=0;exitDy=0;exitPerimeter=0;entryX=0.5309734513274337;entryY=1.0119047619047619;entryDx=0;entryDy=0;entryPerimeter=0;jumpStyle=arc;" parent="1" source="3" target="11" edge="1">
            <mxGeometry relative="1" as="geometry">
              <mxPoint as="offset" />
              <Array as="points">
                <mxPoint x="2122" y="934.05" />
                <mxPoint x="1993.4" y="934.05" />
                <mxPoint x="1855.5900000000001" y="934.05" />
                <mxPoint x="1364.0900000000001" y="934.05" />
                <mxPoint x="1195.6" y="934.05" />
              </Array>
            </mxGeometry>
          </mxCell>
        </UserObject>
        <UserObject label="" tags="Connector" id="89">
          <mxCell style="vsdxID=79;edgeStyle=none;startArrow=none;endArrow=block;startSize=5;endSize=5;strokeColor=#ff6f00;spacingTop=0;spacingBottom=0;spacingLeft=0;spacingRight=0;verticalAlign=middle;html=1;labelBackgroundColor=#ffffff;rounded=0;exitX=0.5050505050505051;exitY=1.008849557522124;exitDx=0;exitDy=0;exitPerimeter=0;entryX=1.0029498525073746;entryY=0.6547619047619048;entryDx=0;entryDy=0;entryPerimeter=0;jumpStyle=arc;" parent="1" source="3" target="12" edge="1">
            <mxGeometry relative="1" as="geometry">
              <mxPoint x="-1" as="offset" />
              <Array as="points">
                <mxPoint x="2122" y="934.05" />
                <mxPoint x="2053.04" y="934.05" />
                <mxPoint x="2053.04" y="721.12" />
                <mxPoint x="1855.5900000000001" y="721.12" />
              </Array>
            </mxGeometry>
          </mxCell>
        </UserObject>
        <UserObject label="" tags="Connector" id="90">
          <mxCell style="vsdxID=80;edgeStyle=none;startArrow=none;endArrow=block;startSize=5;endSize=5;strokeColor=#23445d;spacingTop=0;spacingBottom=0;spacingLeft=0;spacingRight=0;verticalAlign=middle;html=1;labelBackgroundColor=#ffffff;rounded=0;exitX=0.5050505050505051;exitY=1.008849557522124;exitDx=0;exitDy=0;exitPerimeter=0;entryX=0.7433628318584071;entryY=1.0119047619047619;entryDx=0;entryDy=0;entryPerimeter=0;jumpStyle=arc;fillColor=#bac8d3;" parent="1" source="3" target="13" edge="1">
            <mxGeometry relative="1" as="geometry">
              <mxPoint x="-1" as="offset" />
              <Array as="points">
                <mxPoint x="2122" y="934.05" />
                <mxPoint x="1993.4" y="934.05" />
                <mxPoint x="1855.5900000000001" y="934.05" />
                <mxPoint x="1364.0900000000001" y="934.05" />
                <mxPoint x="1266.88" y="934.05" />
              </Array>
            </mxGeometry>
          </mxCell>
        </UserObject>
        <UserObject label="" tags="Connector" id="91">
          <mxCell style="vsdxID=81;edgeStyle=none;startArrow=none;endArrow=block;startSize=5;endSize=5;strokeColor=#ff6f00;spacingTop=0;spacingBottom=0;spacingLeft=0;spacingRight=0;verticalAlign=middle;html=1;labelBackgroundColor=#ffffff;rounded=0;exitX=0.5050505050505051;exitY=1.008849557522124;exitDx=0;exitDy=0;exitPerimeter=0;entryX=1.0029498525073746;entryY=0.2619047619047619;entryDx=0;entryDy=0;entryPerimeter=0;jumpStyle=arc;" parent="1" source="3" target="27" edge="1">
            <mxGeometry relative="1" as="geometry">
              <mxPoint x="-1" as="offset" />
              <Array as="points">
                <mxPoint x="2122" y="1166.98" />
                <mxPoint x="1993.4" y="1166.98" />
                <mxPoint x="1855.5900000000001" y="1166.98" />
                <mxPoint x="1364.0900000000001" y="1166.98" />
              </Array>
            </mxGeometry>
          </mxCell>
        </UserObject>
        <UserObject label="" tags="Connector" id="92">
          <mxCell style="vsdxID=82;edgeStyle=none;startArrow=none;endArrow=block;startSize=5;endSize=5;strokeColor=#ff6f00;spacingTop=0;spacingBottom=0;spacingLeft=0;spacingRight=0;verticalAlign=middle;html=1;labelBackgroundColor=#ffffff;rounded=0;exitX=0.5050505050505051;exitY=1.008849557522124;exitDx=0;exitDy=0;exitPerimeter=0;entryX=1;entryY=0.5357142857142857;entryDx=0;entryDy=0;entryPerimeter=0;jumpStyle=arc;" parent="1" source="3" target="38" edge="1">
            <mxGeometry relative="1" as="geometry">
              <mxPoint as="offset" />
              <Array as="points">
                <mxPoint x="2122" y="1558.35" />
                <mxPoint x="1714.3600000000001" y="1558.35" />
              </Array>
            </mxGeometry>
          </mxCell>
        </UserObject>
        <UserObject label="" tags="Connector" id="93">
          <mxCell style="vsdxID=89;edgeStyle=none;startArrow=none;endArrow=block;startSize=5;endSize=5;strokeColor=#ff6f00;spacingTop=0;spacingBottom=0;spacingLeft=0;spacingRight=0;verticalAlign=middle;html=1;labelBackgroundColor=#ffffff;rounded=0;exitX=1.0101010101010102;exitY=0.504424778761062;exitDx=0;exitDy=0;exitPerimeter=0;entryX=0;entryY=0.5;entryDx=0;entryDy=0;entryPerimeter=0;" parent="1" source="45" target="6" edge="1">
            <mxGeometry relative="1" as="geometry">
              <mxPoint x="-1" as="offset" />
              <Array as="points">
                <mxPoint x="213.04999999999995" y="864" />
                <mxPoint x="213.04999999999995" y="138.24" />
              </Array>
            </mxGeometry>
          </mxCell>
        </UserObject>
        <UserObject label="" tags="Connector" id="94">
          <mxCell style="vsdxID=90;edgeStyle=none;startArrow=none;endArrow=block;startSize=5;endSize=5;strokeColor=#ff6f00;spacingTop=0;spacingBottom=0;spacingLeft=0;spacingRight=0;verticalAlign=middle;html=1;labelBackgroundColor=#ffffff;rounded=0;exitX=1.0101010101010102;exitY=0.504424778761062;exitDx=0;exitDy=0;exitPerimeter=0;entryX=0;entryY=0.5;entryDx=0;entryDy=0;entryPerimeter=0;" parent="1" source="45" target="7" edge="1">
            <mxGeometry relative="1" as="geometry">
              <mxPoint as="offset" />
              <Array as="points">
                <mxPoint x="213.04999999999995" y="864" />
                <mxPoint x="213.04999999999995" y="233.3" />
              </Array>
            </mxGeometry>
          </mxCell>
        </UserObject>
      </root>
    </mxGraphModel>
  </diagram>
</mxfile>
